<svg xmlns="http://www.w3.org/2000/svg" xmlns:xlink="http://www.w3.org/1999/xlink" width="500" zoomAndPan="magnify" viewBox="0 0 375 374.999991" height="500" preserveAspectRatio="xMidYMid meet" version="1.0"><defs><clipPath id="21a86a9d35"><path d="M 53.835938 221 L 320.835938 221 L 320.835938 341.449219 L 53.835938 341.449219 Z M 53.835938 221 " clip-rule="nonzero"/></clipPath><clipPath id="f1b5969042"><path d="M 88 201 L 320.835938 201 L 320.835938 302 L 88 302 Z M 88 201 " clip-rule="nonzero"/></clipPath><clipPath id="1006b57f87"><path d="M 116 160 L 320.835938 160 L 320.835938 265 L 116 265 Z M 116 160 " clip-rule="nonzero"/></clipPath><clipPath id="4d1970f522"><path d="M 53.835938 33.199219 L 275 33.199219 L 275 212 L 53.835938 212 Z M 53.835938 33.199219 " clip-rule="nonzero"/></clipPath></defs><rect x="-37.5" width="450" fill="#ffffff" y="-37.499999" height="449.999989" fill-opacity="1"/><rect x="-37.5" width="450" fill="#000000" y="-37.499999" height="449.999989" fill-opacity="1"/><g clip-path="url(#21a86a9d35)"><path fill="#ffffff" d="M 170.027344 311.558594 L 187.496094 321.617188 L 303.652344 254.589844 L 321.117188 244.464844 L 321.117188 264.648438 L 187.496094 341.800781 L 170.027344 331.738281 L 152.558594 321.617188 L 135.15625 311.558594 L 120.710938 303.222656 L 117.6875 301.496094 L 100.222656 291.4375 L 53.871094 264.648438 L 53.871094 231.257812 L 71.335938 221.199219 L 71.335938 254.589844 L 117.6875 281.3125 L 135.15625 291.4375 L 152.558594 301.496094 Z M 170.027344 311.558594 " fill-opacity="1" fill-rule="evenodd"/></g><g clip-path="url(#f1b5969042)"><path fill="#ffffff" d="M 106.207031 234.40625 L 152.558594 261.191406 L 170.027344 271.253906 L 187.496094 281.3125 L 268.78125 234.40625 L 286.183594 224.347656 L 303.652344 214.285156 L 321.117188 204.164062 L 321.117188 224.347656 L 303.652344 234.40625 L 286.183594 244.464844 L 187.496094 301.496094 L 170.027344 291.4375 L 152.558594 281.3125 L 135.15625 271.253906 L 88.804688 244.464844 L 88.804688 211.136719 L 106.207031 201.078125 Z M 106.207031 234.40625 " fill-opacity="1" fill-rule="evenodd"/></g><g clip-path="url(#1006b57f87)"><path fill="#ffffff" d="M 142.5625 186.636719 C 142.191406 186.265625 141.699219 186.078125 141.140625 186.078125 C 140.585938 186.078125 140.09375 186.328125 139.722656 186.636719 C 139.351562 187.003906 139.167969 187.5 139.167969 188.054688 C 139.167969 188.609375 139.414062 189.105469 139.722656 189.472656 C 140.09375 189.84375 140.585938 190.03125 141.140625 190.03125 C 141.699219 190.03125 142.191406 189.78125 142.5625 189.472656 C 142.933594 189.105469 143.117188 188.609375 143.117188 188.054688 C 143.117188 187.5 142.933594 187.003906 142.5625 186.636719 Z M 125.09375 196.695312 C 124.726562 196.324219 124.230469 196.140625 123.675781 196.140625 C 123.121094 196.140625 122.625 196.386719 122.257812 196.695312 C 121.886719 197.066406 121.699219 197.558594 121.699219 198.113281 C 121.699219 198.671875 121.949219 199.164062 122.257812 199.535156 C 122.625 199.90625 123.121094 200.089844 123.675781 200.089844 C 124.230469 200.089844 124.726562 199.84375 125.09375 199.535156 C 125.464844 199.164062 125.652344 198.671875 125.652344 198.113281 C 125.652344 197.558594 125.464844 197.066406 125.09375 196.695312 Z M 315.253906 166.761719 C 314.886719 166.390625 314.390625 166.207031 313.835938 166.207031 C 313.28125 166.207031 312.785156 166.453125 312.417969 166.761719 C 312.046875 167.132812 311.859375 167.625 311.859375 168.179688 C 311.859375 168.734375 312.109375 169.230469 312.417969 169.601562 C 312.785156 169.96875 313.28125 170.15625 313.835938 170.15625 C 314.390625 170.15625 314.886719 169.910156 315.253906 169.601562 C 315.625 169.230469 315.8125 168.734375 315.8125 168.179688 C 315.871094 167.625 315.625 167.070312 315.253906 166.761719 Z M 315.253906 187.191406 C 314.886719 186.820312 314.390625 186.636719 313.835938 186.636719 C 313.28125 186.636719 312.785156 186.882812 312.417969 187.191406 C 312.046875 187.5625 311.859375 188.054688 311.859375 188.609375 C 311.859375 189.164062 312.109375 189.660156 312.417969 190.03125 C 312.785156 190.398438 313.28125 190.585938 313.835938 190.585938 C 314.390625 190.585938 314.886719 190.339844 315.253906 190.03125 C 315.625 189.660156 315.8125 189.164062 315.8125 188.609375 C 315.871094 188.054688 315.625 187.5625 315.253906 187.191406 Z M 313.898438 181.386719 C 315.871094 181.386719 317.722656 182.191406 319.019531 183.488281 C 320.316406 184.785156 321.117188 186.636719 321.117188 188.609375 C 321.117188 190.585938 320.316406 192.4375 319.019531 193.734375 C 317.722656 195.027344 315.871094 195.832031 313.898438 195.832031 C 312.046875 195.832031 310.378906 195.152344 309.082031 193.980469 L 187.496094 264.15625 C 165.335938 251.378906 143.179688 238.601562 121.082031 225.828125 L 121.082031 204.84375 C 120.15625 204.472656 119.292969 203.917969 118.613281 203.238281 C 117.316406 201.941406 116.515625 200.089844 116.515625 198.113281 C 116.515625 196.140625 117.316406 194.289062 118.613281 192.992188 C 119.910156 191.695312 121.761719 190.894531 123.738281 190.894531 C 125.710938 190.894531 127.5625 191.695312 128.859375 192.992188 C 130.15625 194.289062 130.957031 196.140625 130.957031 198.113281 C 130.957031 200.089844 130.15625 201.941406 128.859375 203.238281 C 128.179688 203.917969 127.316406 204.472656 126.390625 204.84375 L 126.390625 222.804688 L 187.554688 258.105469 L 306.675781 189.351562 C 306.675781 189.105469 306.613281 188.855469 306.613281 188.609375 C 306.613281 186.636719 307.417969 184.785156 308.714844 183.488281 C 310.070312 182.191406 311.859375 181.386719 313.898438 181.386719 Z M 143.796875 194.78125 L 143.796875 212.742188 L 187.496094 237.984375 C 227.242188 215.027344 266.988281 192.066406 306.738281 169.167969 C 306.675781 168.859375 306.675781 168.488281 306.675781 168.179688 C 306.675781 166.207031 307.476562 164.355469 308.773438 163.058594 C 310.070312 161.761719 311.921875 160.960938 313.898438 160.960938 C 315.871094 160.960938 317.722656 161.761719 319.019531 163.058594 C 320.316406 164.355469 321.117188 166.207031 321.117188 168.179688 C 321.117188 170.15625 320.316406 172.007812 319.019531 173.304688 C 317.722656 174.597656 315.871094 175.402344 313.898438 175.402344 C 312.167969 175.402344 310.566406 174.785156 309.269531 173.734375 L 187.496094 244.035156 L 138.488281 215.765625 L 138.488281 194.78125 C 137.5625 194.410156 136.699219 193.855469 136.019531 193.175781 C 134.722656 191.882812 133.921875 190.03125 133.921875 188.054688 C 133.921875 186.078125 134.722656 184.226562 136.019531 182.933594 C 137.316406 181.636719 139.167969 180.832031 141.140625 180.832031 C 143.117188 180.832031 144.96875 181.636719 146.265625 182.933594 C 147.5625 184.226562 148.363281 186.078125 148.363281 188.054688 C 148.363281 190.03125 147.5625 191.882812 146.265625 193.175781 C 145.585938 193.855469 144.722656 194.410156 143.796875 194.78125 Z M 143.796875 194.78125 " fill-opacity="1" fill-rule="nonzero"/></g><g clip-path="url(#4d1970f522)"><path fill="#c9a227" d="M 187.496094 33.199219 L 204.960938 43.257812 L 222.429688 53.320312 L 239.894531 63.441406 L 257.363281 73.5 L 274.828125 83.5625 L 257.300781 93.683594 L 239.832031 103.746094 L 222.367188 113.804688 L 204.960938 123.925781 L 187.496094 133.988281 L 141.140625 160.773438 L 123.675781 170.835938 L 106.207031 180.894531 L 88.742188 190.957031 L 71.335938 201.078125 L 53.871094 211.136719 L 53.871094 110.347656 Z M 187.496094 53.378906 L 71.335938 120.410156 L 71.335938 140.589844 L 88.804688 130.53125 L 187.496094 73.5625 L 204.960938 63.441406 Z M 187.496094 93.683594 L 106.207031 140.589844 L 88.742188 150.652344 L 71.273438 160.710938 L 71.273438 180.894531 L 88.804688 170.835938 L 106.269531 160.773438 L 123.738281 150.714844 L 187.554688 113.867188 L 205.023438 103.804688 L 222.429688 93.683594 L 239.894531 83.625 L 222.429688 73.5625 L 204.960938 83.625 Z M 187.496094 93.683594 " fill-opacity="1" fill-rule="evenodd"/></g></svg>