<svg xmlns="http://www.w3.org/2000/svg" xmlns:xlink="http://www.w3.org/1999/xlink" width="500" zoomAndPan="magnify" viewBox="0 0 375 374.999991" height="500" preserveAspectRatio="xMidYMid meet" version="1.0"><defs><clipPath id="f881a871ce"><path d="M 123.929688 37.5 L 317.402344 37.5 L 317.402344 182.820312 L 123.929688 182.820312 Z M 123.929688 37.5 " clip-rule="nonzero"/></clipPath><clipPath id="86e59fa484"><path d="M 126.71875 154 L 317.402344 154 L 317.402344 337.5 L 126.71875 337.5 Z M 126.71875 154 " clip-rule="nonzero"/></clipPath><clipPath id="448ffb16dc"><path d="M 256.605469 154 L 317.402344 154 L 317.402344 189.222656 L 256.605469 189.222656 Z M 256.605469 154 " clip-rule="nonzero"/></clipPath><clipPath id="b5f78b8fae"><path d="M 57.5625 77 L 182 77 L 182 300 L 57.5625 300 Z M 57.5625 77 " clip-rule="nonzero"/></clipPath></defs><rect x="-37.5" width="450" fill="#ffffff" y="-37.499999" height="449.999989" fill-opacity="1"/><rect x="-37.5" width="450" fill="#000000" y="-37.499999" height="449.999989" fill-opacity="1"/><g clip-path="url(#f881a871ce)"><path fill="#a5d9c6" d="M 254.589844 146.398438 L 255.242188 146.773438 L 317.402344 182.664062 L 317.402344 112.496094 L 253.097656 75.371094 L 253.09375 75.371094 L 187.496094 37.5 L 123.941406 74.191406 L 123.941406 144.355469 L 187.496094 107.664062 L 254.589844 146.398438 " fill-opacity="1" fill-rule="nonzero"/></g><g clip-path="url(#86e59fa484)"><path fill="#a5d9c6" d="M 255.238281 228.222656 L 190.289062 265.71875 L 188.890625 266.53125 L 126.730469 302.417969 L 187.496094 337.5 L 252.449219 300 L 317.402344 262.496094 L 317.402344 189.109375 L 256.632812 154.027344 L 256.632812 227.414062 L 255.238281 228.222656 " fill-opacity="1" fill-rule="nonzero"/></g><g clip-path="url(#448ffb16dc)"><path fill="#a5d9c6" d="M 317.402344 189.109375 L 256.632812 154.023438 L 256.632812 154.027344 L 317.402344 189.109375 " fill-opacity="1" fill-rule="nonzero"/></g><g clip-path="url(#b5f78b8fae)"><path fill="#a5d9c6" d="M 118.359375 154.027344 L 118.359375 77.417969 L 57.589844 112.5 L 57.589844 262.5 L 121.148438 299.191406 L 152.792969 280.921875 L 181.914062 264.109375 L 118.359375 227.417969 L 118.359375 154.027344 " fill-opacity="1" fill-rule="nonzero"/></g><path fill="#a5d9c6" d="M 181.914062 264.109375 L 152.792969 280.921875 Z M 181.914062 264.109375 " fill-opacity="1" fill-rule="nonzero"/></svg>